<svg width="720" height="720" viewBox="0 0 720 720" fill="none" xmlns="http://www.w3.org/2000/svg">
<g clip-path="url(#clip0_3_4)">
<rect width="720" height="720" fill="white"/>
<rect width="720" height="720" fill="white"/>
<path d="M532.6 243.8V251.8C524.067 252.067 517.667 253.133 513.4 255C509.133 256.6 506.2 259.8 504.6 264.6C503.267 269.133 502.6 276.333 502.6 286.2V484.6C502.6 494.2 503.267 501.4 504.6 506.2C506.2 511 509.133 514.2 513.4 515.8C517.667 517.4 524.067 518.467 532.6 519V527C525.133 526.467 515.667 526.2 504.2 526.2C493 525.933 481.533 525.8 469.8 525.8C457 525.8 445 525.933 433.8 526.2C422.6 526.2 413.533 526.467 406.6 527V519C415.667 518.467 422.467 517.4 427 515.8C431.8 514.2 435 511 436.6 506.2C438.2 501.4 439 494.2 439 484.6V268.2H441.8L342.6 527.4H336.2L228.2 269.8V461.4C228.2 476.067 229 487.4 230.6 495.4C232.2 503.133 235.667 508.733 241 512.2C246.6 515.4 255.267 517.667 267 519V527C261.933 526.467 255.267 526.2 247 526.2C238.733 525.933 231 525.8 223.8 525.8C217.667 525.8 211.4 525.933 205 526.2C198.6 526.2 193.267 526.467 189 527V519C197.533 517.667 203.933 515.4 208.2 512.2C212.467 509 215.267 503.8 216.6 496.6C218.2 489.133 219 479 219 466.2V286.2C219 276.333 218.2 269.133 216.6 264.6C215.267 259.8 212.333 256.6 207.8 255C203.533 253.133 197.267 252.067 189 251.8V243.8C193.267 244.067 198.6 244.333 205 244.6C211.4 244.867 217.667 245 223.8 245C235.267 245 246.467 244.867 257.4 244.6C268.6 244.333 278.467 244.067 287 243.8L371 446.6L361 455.8L441.4 245C445.933 245 450.6 245 455.4 245C460.2 245 465 245 469.8 245C481.533 245 493 244.867 504.2 244.6C515.667 244.333 525.133 244.067 532.6 243.8Z" fill="#1E1E1E"/>
</g>
<defs>
<clipPath id="clip0_3_4">
<rect width="720" height="720" fill="white"/>
</clipPath>
</defs>
</svg>
